<svg xmlns="http://www.w3.org/2000/svg" xmlns:xlink="http://www.w3.org/1999/xlink" width="500" zoomAndPan="magnify" viewBox="0 0 375 374.999991" height="500" preserveAspectRatio="xMidYMid meet" version="1.0"><defs><g/></defs><g fill="#000000" fill-opacity="1"><g transform="translate(110.561781, 234.374985)"><g><path d="M 76.9375 1.703125 C 54.59375 1.703125 37.320312 -2.171875 25.125 -9.921875 C 12.9375 -17.671875 6.84375 -28.609375 6.84375 -42.734375 C 6.84375 -56.984375 12.9375 -67.953125 25.125 -75.640625 C 37.320312 -83.335938 54.59375 -87.1875 76.9375 -87.1875 C 99.382812 -87.1875 116.675781 -83.335938 128.8125 -75.640625 C 140.957031 -67.953125 147.03125 -56.984375 147.03125 -42.734375 C 147.03125 -28.609375 140.957031 -17.671875 128.8125 -9.921875 C 116.675781 -2.171875 99.382812 1.703125 76.9375 1.703125 Z M 77.109375 -27.359375 C 84.171875 -27.359375 89.609375 -28.695312 93.421875 -31.375 C 97.242188 -34.050781 99.15625 -37.835938 99.15625 -42.734375 C 99.15625 -47.753906 97.242188 -51.570312 93.421875 -54.1875 C 89.609375 -56.8125 84.171875 -58.125 77.109375 -58.125 C 69.921875 -58.125 64.390625 -56.8125 60.515625 -54.1875 C 56.640625 -51.570312 54.703125 -47.753906 54.703125 -42.734375 C 54.703125 -37.835938 56.640625 -34.050781 60.515625 -31.375 C 64.390625 -28.695312 69.921875 -27.359375 77.109375 -27.359375 Z M 77.109375 -27.359375 "/></g></g></g></svg>